# This file uses centimeters as units for non-parametric coordinates.

mtllib A_Symbol_fix.mtl
g default
v 0.155323 -0.157261 0.664932
v 0.412112 -0.157261 0.664932
v 0.155323 0.118789 0.664932
v 0.412112 0.118789 0.664932
v 0.155323 0.118789 -0.571823
v 0.412112 0.118789 -0.571823
v 0.155323 -0.157261 -0.571823
v 0.412112 -0.157261 -0.571823
v 0.155323 0.118789 -0.738947
v 0.412112 0.118789 -0.738947
v 0.412112 -0.157261 -0.738947
v 0.155323 -0.157261 -0.738947
v 0.155323 0.118789 -0.965258
v 0.412112 0.118789 -0.965258
v 0.412112 -0.157261 -0.965258
v 0.155323 -0.157261 -0.965258
v -0.259001 0.118789 -0.213208
v -0.259001 -0.157261 -0.213208
v -0.259001 0.118789 -0.380330
v -0.259001 -0.157261 -0.380330
v -0.471386 0.118789 -0.122683
v -0.471386 -0.157261 -0.122683
v -0.471386 0.118789 -0.289805
v -0.471386 -0.157261 -0.289805
v -0.255932 0.118789 -0.668385
v -0.255932 -0.157261 -0.668385
v -0.466282 -0.157261 -0.669272
v -0.466282 0.118789 -0.669272
v -0.314396 0.118789 -0.831198
v -0.314396 -0.157261 -0.831198
v -0.518198 -0.157261 -0.698174
v -0.518198 0.118789 -0.698174
v -0.452406 0.118789 -0.965851
v -0.452406 -0.157261 -0.965851
v -0.571981 -0.157261 -0.714373
v -0.571981 0.118789 -0.714373
v -0.592360 0.118789 -0.954169
v -0.592360 -0.157261 -0.954169
v -0.598022 -0.157261 -0.713498
v -0.598022 0.118789 -0.713498
v -0.679911 0.118789 -0.907481
v -0.679911 -0.157261 -0.907481
v -0.617435 -0.157261 -0.708414
v -0.617435 0.118789 -0.708414
v -0.711758 0.118789 -0.830571
v -0.711758 -0.157261 -0.830571
v -0.668991 -0.157261 -0.694296
v -0.668991 0.118789 -0.694296
v -0.735779 0.118789 -0.753741
v -0.735779 -0.157261 -0.753741
v -0.714699 -0.157261 -0.686571
v -0.714699 0.118789 -0.686571
v 0.251081 -0.157261 0.877136
v 0.419415 -0.157261 0.759361
v 0.419415 0.118789 0.759361
v 0.251081 0.118789 0.877136
v 0.394354 -0.157261 0.971727
v 0.459136 -0.157261 0.818130
v 0.459136 0.118789 0.818130
v 0.394354 0.118789 0.971727
v 0.545951 -0.157261 0.963396
v 0.545794 -0.157261 0.826871
v 0.545794 0.118789 0.826871
v 0.545951 0.118789 0.963396
v 0.664883 -0.157261 0.917436
v 0.612822 -0.157261 0.812187
v 0.612822 0.118789 0.812187
v 0.664883 0.118789 0.917436
v 0.753104 -0.157261 0.801128
v 0.662041 -0.157261 0.752239
v 0.662041 0.118789 0.752239
v 0.753104 0.118789 0.801128
v 0.756418 -0.157261 0.668001
v 0.669317 -0.157261 0.669622
v 0.669317 0.118789 0.669622
v 0.756418 0.118789 0.668001
v 0.726480 -0.157261 0.574291
v 0.664073 -0.157261 0.602689
v 0.664073 0.118789 0.602689
v 0.726480 0.118789 0.574291
v 0.664712 -0.157261 0.521303
v 0.643322 -0.157261 0.541648
v 0.643322 0.118789 0.541648
v 0.664712 0.118789 0.521303
vt 0.375000 0.000000
vt 0.625000 0.000000
vt 0.625000 0.250000
vt 0.375000 0.250000
vt 0.375000 0.250000
vt 0.625000 0.250000
vt 0.625000 0.500000
vt 0.375000 0.500000
vt 0.375000 0.500000
vt 0.625000 0.500000
vt 0.625000 0.750000
vt 0.375000 0.750000
vt 0.375000 0.750000
vt 0.625000 0.750000
vt 0.625000 1.000000
vt 0.375000 1.000000
vt 0.625000 0.000000
vt 0.875000 0.000000
vt 0.875000 0.250000
vt 0.125000 0.000000
vt 0.375000 0.000000
vt 0.125000 0.250000
vt 0.625000 0.500000
vt 0.375000 0.500000
vt 0.625000 0.750000
vt 0.375000 0.750000
vt 0.375000 0.750000
vt 0.375000 0.500000
vt 0.375000 0.500000
vt 0.375000 0.750000
vt 0.375000 0.500000
vt 0.375000 0.750000
vt 0.375000 0.500000
vt 0.375000 0.750000
vt 0.375000 0.500000
vt 0.375000 0.750000
vt 0.375000 0.750000
vt 0.375000 0.500000
vt 0.375000 0.750000
vt 0.375000 0.500000
vt 0.375000 0.750000
vt 0.375000 0.500000
vt 0.375000 0.750000
vt 0.375000 0.500000
vt 0.375000 0.750000
vt 0.375000 0.500000
vt 0.375000 0.750000
vt 0.375000 0.500000
vt 0.375000 0.750000
vt 0.375000 0.500000
vt 0.375000 0.750000
vt 0.375000 0.500000
vt 0.375000 0.750000
vt 0.375000 0.500000
vt 0.375000 0.750000
vt 0.375000 0.500000
vt 0.375000 0.750000
vt 0.375000 0.500000
vt 0.375000 0.750000
vt 0.375000 0.500000
vt 0.375000 0.750000
vt 0.375000 0.500000
vt 0.625000 0.000000
vt 0.375000 0.000000
vt 0.625000 0.250000
vt 0.375000 0.250000
vt 0.625000 0.000000
vt 0.375000 0.000000
vt 0.625000 0.250000
vt 0.375000 0.250000
vt 0.625000 0.000000
vt 0.375000 0.000000
vt 0.625000 0.250000
vt 0.375000 0.250000
vt 0.625000 0.000000
vt 0.375000 0.000000
vt 0.625000 0.250000
vt 0.375000 0.250000
vt 0.625000 0.000000
vt 0.375000 0.000000
vt 0.625000 0.250000
vt 0.375000 0.250000
vt 0.625000 0.000000
vt 0.375000 0.000000
vt 0.625000 0.250000
vt 0.375000 0.250000
vt 0.625000 0.000000
vt 0.375000 0.000000
vt 0.625000 0.250000
vt 0.375000 0.250000
vn -0.689180 0.000000 -0.724590
vn -0.689180 0.000000 -0.724590
vn -0.689180 0.000000 -0.724590
vn -0.689180 0.000000 -0.724590
vn 0.000000 1.000000 0.000000
vn 0.000000 1.000000 0.000000
vn 0.000000 1.000000 0.000000
vn 0.000000 1.000000 0.000000
vn 0.000000 0.000000 -1.000000
vn 0.000000 0.000000 -1.000000
vn 0.000000 0.000000 -1.000000
vn 0.000000 0.000000 -1.000000
vn 0.000000 -1.000000 0.000000
vn 0.000000 -1.000000 0.000000
vn 0.000000 -1.000000 0.000000
vn 0.000000 -1.000000 0.000000
vn 0.999985 0.000000 -0.005485
vn 1.000000 0.000000 0.000000
vn 1.000000 0.000000 0.000000
vn 0.999985 0.000000 -0.005485
vn -1.000000 0.000000 0.000000
vn -0.997823 0.000000 0.065944
vn -0.997823 0.000000 0.065944
vn -1.000000 0.000000 0.000000
vn 0.000000 1.000000 0.000000
vn 0.000000 1.000000 0.000000
vn 0.000000 1.000000 0.000000
vn 0.000000 1.000000 0.000000
vn 1.000000 0.000000 0.000000
vn 1.000000 0.000000 0.000000
vn 1.000000 0.000000 0.000000
vn 1.000000 0.000000 0.000000
vn 0.000000 -1.000000 0.000000
vn 0.000000 -1.000000 0.000000
vn 0.000000 -1.000000 0.000000
vn 0.000000 -1.000000 0.000000
vn -1.000000 0.000000 0.000000
vn -1.000000 0.000000 0.000000
vn -0.999956 0.000000 -0.009339
vn -0.999956 0.000000 -0.009339
vn 0.000000 1.000000 0.000000
vn 0.000000 1.000000 0.000000
vn 0.000000 1.000000 0.000000
vn 0.000000 1.000000 0.000000
vn 1.000000 0.000000 0.000000
vn 1.000000 0.000000 0.000000
vn 1.000000 0.000000 0.000000
vn 1.000000 0.000000 0.000000
vn 0.000000 -1.000000 0.000000
vn 0.000000 -1.000000 0.000000
vn 0.000000 -1.000000 0.000000
vn 0.000000 -1.000000 0.000000
vn -1.000000 0.000000 0.000000
vn -1.000000 0.000000 0.000000
vn -1.000000 0.000000 0.000000
vn -1.000000 0.000000 0.000000
vn 0.654447 0.000000 0.756108
vn 0.654447 0.000000 0.756108
vn 0.582519 0.000000 0.812817
vn 0.582519 0.000000 0.812817
vn 0.000000 1.000000 0.000000
vn 0.000000 1.000000 0.000000
vn 0.000000 1.000000 0.000000
vn 0.000000 1.000000 0.000000
vn -0.654447 0.000000 -0.756108
vn -0.654447 0.000000 -0.756108
vn -0.654447 0.000000 -0.756108
vn -0.654447 0.000000 -0.756108
vn 0.000000 -1.000000 0.000000
vn 0.000000 -1.000000 0.000000
vn 0.000000 -1.000000 0.000000
vn 0.000000 -1.000000 0.000000
vn 0.582519 0.000000 0.812817
vn 0.582519 0.000000 0.812817
vn 0.392098 0.000000 0.919923
vn 0.392098 0.000000 0.919923
vn 0.000000 1.000000 0.000000
vn 0.000000 1.000000 0.000000
vn 0.000000 1.000000 0.000000
vn 0.000000 1.000000 0.000000
vn -0.954114 0.000000 0.299445
vn -0.954114 0.000000 0.299445
vn -0.954114 0.000000 0.299445
vn -0.954114 0.000000 0.299445
vn 0.000000 -1.000000 0.000000
vn 0.000000 -1.000000 0.000000
vn 0.000000 -1.000000 0.000000
vn 0.000000 -1.000000 0.000000
vn 0.999943 0.000000 0.010652
vn 0.999943 0.000000 0.010652
vn 0.992537 0.000000 -0.121947
vn 0.992537 0.000000 -0.121947
vn 0.000000 -1.000000 0.000000
vn 0.000000 -1.000000 0.000000
vn 0.000000 -1.000000 0.000000
vn 0.000000 -1.000000 0.000000
vn -0.999956 0.000000 -0.009339
vn -0.999956 0.000000 -0.009339
vn -0.999910 0.000000 -0.013451
vn -0.999910 0.000000 -0.013451
vn 0.000000 1.000000 0.000000
vn 0.000000 1.000000 0.000000
vn 0.000000 1.000000 0.000000
vn 0.000000 1.000000 0.000000
vn 0.992537 0.000000 -0.121947
vn 0.992537 0.000000 -0.121947
vn 0.834419 0.000000 -0.551130
vn 0.834419 0.000000 -0.551130
vn 0.000000 -1.000000 0.000000
vn 0.000000 -1.000000 0.000000
vn 0.000000 -1.000000 0.000000
vn 0.000000 -1.000000 0.000000
vn -0.486427 0.000000 0.873721
vn -0.486427 0.000000 0.873721
vn -0.392460 0.000000 0.919769
vn -0.392460 0.000000 0.919769
vn 0.000000 1.000000 0.000000
vn 0.000000 1.000000 0.000000
vn 0.000000 1.000000 0.000000
vn 0.000000 1.000000 0.000000
vn 0.834419 0.000000 -0.551130
vn 0.834419 0.000000 -0.551130
vn 0.698348 0.000000 -0.715758
vn 0.698348 0.000000 -0.715758
vn 0.000000 -1.000000 0.000000
vn 0.000000 -1.000000 0.000000
vn 0.000000 -1.000000 0.000000
vn 0.000000 -1.000000 0.000000
vn -0.392460 0.000000 0.919769
vn -0.392460 0.000000 0.919769
vn -0.188519 0.000000 0.982070
vn -0.188519 0.000000 0.982070
vn 0.000000 1.000000 0.000000
vn 0.000000 1.000000 0.000000
vn 0.000000 1.000000 0.000000
vn 0.000000 1.000000 0.000000
vn -0.083172 0.000000 -0.996535
vn -0.083172 0.000000 -0.996535
vn -0.248511 0.000000 -0.968629
vn -0.248511 0.000000 -0.968629
vn 0.000000 -1.000000 0.000000
vn 0.000000 -1.000000 0.000000
vn 0.000000 -1.000000 0.000000
vn 0.000000 -1.000000 0.000000
vn -0.188519 0.000000 0.982070
vn -0.188519 0.000000 0.982070
vn 0.033600 0.000000 0.999435
vn 0.033600 0.000000 0.999435
vn 0.000000 1.000000 0.000000
vn 0.000000 1.000000 0.000000
vn 0.000000 1.000000 0.000000
vn 0.000000 1.000000 0.000000
vn -0.248511 0.000000 -0.968629
vn -0.248511 0.000000 -0.968629
vn -0.470541 0.000000 -0.882378
vn -0.470541 0.000000 -0.882378
vn 0.000000 -1.000000 0.000000
vn 0.000000 -1.000000 0.000000
vn 0.000000 -1.000000 0.000000
vn 0.000000 -1.000000 0.000000
vn 0.253287 0.000000 0.967391
vn 0.253287 0.000000 0.967391
vn 0.261183 0.000000 0.965289
vn 0.261183 0.000000 0.965289
vn 0.000000 1.000000 0.000000
vn 0.000000 1.000000 0.000000
vn 0.000000 1.000000 0.000000
vn 0.000000 1.000000 0.000000
vn -0.923925 0.000000 -0.382573
vn -0.923925 0.000000 -0.382573
vn -0.939868 0.000000 -0.341539
vn -0.939868 0.000000 -0.341539
vn 0.000000 -1.000000 0.000000
vn 0.000000 -1.000000 0.000000
vn 0.000000 -1.000000 0.000000
vn 0.000000 -1.000000 0.000000
vn 0.261183 0.000000 0.965289
vn 0.261183 0.000000 0.965289
vn 0.219125 0.000000 0.975697
vn 0.219125 0.000000 0.975697
vn 0.000000 1.000000 0.000000
vn 0.000000 1.000000 0.000000
vn 0.000000 1.000000 0.000000
vn 0.000000 1.000000 0.000000
vn -0.939868 0.000000 -0.341539
vn -0.939868 0.000000 -0.341539
vn -0.954438 0.000000 -0.298409
vn -0.954438 0.000000 -0.298409
vn 0.000000 -1.000000 0.000000
vn 0.000000 -1.000000 0.000000
vn 0.000000 -1.000000 0.000000
vn 0.000000 -1.000000 0.000000
vn 0.219125 0.000000 0.975697
vn 0.219125 0.000000 0.975697
vn 0.166629 0.000000 0.986020
vn 0.166629 0.000000 0.986020
vn 0.000000 1.000000 0.000000
vn 0.000000 1.000000 0.000000
vn 0.000000 1.000000 0.000000
vn 0.000000 1.000000 0.000000
vn 0.000000 -1.000000 0.000000
vn 0.000000 -1.000000 0.000000
vn 0.000000 -1.000000 0.000000
vn 0.000000 -1.000000 0.000000
vn 0.999985 0.000000 -0.005485
vn 0.999985 0.000000 -0.005485
vn 0.955980 0.000000 -0.293432
vn 0.955980 0.000000 -0.293432
vn 0.000000 1.000000 0.000000
vn 0.000000 1.000000 0.000000
vn 0.000000 1.000000 0.000000
vn 0.000000 1.000000 0.000000
vn -0.997823 0.000000 0.065944
vn -0.997823 0.000000 0.065944
vn -0.911491 0.000000 0.411320
vn -0.911491 0.000000 0.411320
vn 0.000000 -1.000000 0.000000
vn 0.000000 -1.000000 0.000000
vn 0.000000 -1.000000 0.000000
vn 0.000000 -1.000000 0.000000
vn 0.955980 0.000000 -0.293432
vn 0.955980 0.000000 -0.293432
vn 0.828505 0.000000 -0.559981
vn 0.828505 0.000000 -0.559981
vn 0.000000 1.000000 0.000000
vn 0.000000 1.000000 0.000000
vn 0.000000 1.000000 0.000000
vn 0.000000 1.000000 0.000000
vn -0.550973 0.000000 0.834523
vn -0.550973 0.000000 0.834523
vn -0.550973 0.000000 0.834523
vn -0.550973 0.000000 0.834523
vn 0.000000 -1.000000 0.000000
vn 0.000000 -1.000000 0.000000
vn 0.000000 -1.000000 0.000000
vn 0.000000 -1.000000 0.000000
vn 0.100373 0.000000 -0.994950
vn 0.100373 0.000000 -0.994950
vn -0.038636 0.000000 -0.999253
vn -0.038636 0.000000 -0.999253
vn 0.000000 1.000000 0.000000
vn 0.000000 1.000000 0.000000
vn 0.000000 1.000000 0.000000
vn 0.000000 1.000000 0.000000
vn 0.054868 0.000000 0.998494
vn 0.054868 0.000000 0.998494
vn 0.196764 0.000000 0.980451
vn 0.196764 0.000000 0.980451
vn 0.000000 -1.000000 0.000000
vn 0.000000 -1.000000 0.000000
vn 0.000000 -1.000000 0.000000
vn 0.000000 -1.000000 0.000000
vn -0.038636 0.000000 -0.999253
vn -0.038636 0.000000 -0.999253
vn -0.214013 0.000000 -0.976831
vn -0.214013 0.000000 -0.976831
vn 0.000000 1.000000 0.000000
vn 0.000000 1.000000 0.000000
vn 0.000000 1.000000 0.000000
vn 0.000000 1.000000 0.000000
vn 0.196764 0.000000 0.980451
vn 0.196764 0.000000 0.980451
vn 0.360470 0.000000 0.932771
vn 0.360470 0.000000 0.932771
vn 0.000000 -1.000000 0.000000
vn 0.000000 -1.000000 0.000000
vn 0.000000 -1.000000 0.000000
vn 0.000000 -1.000000 0.000000
vn -0.772873 0.000000 -0.634561
vn -0.772873 0.000000 -0.634561
vn -0.772873 0.000000 -0.634561
vn -0.772873 0.000000 -0.634561
vn 0.000000 1.000000 0.000000
vn 0.000000 1.000000 0.000000
vn 0.000000 1.000000 0.000000
vn 0.000000 1.000000 0.000000
vn 0.796728 0.000000 0.604338
vn 0.796728 0.000000 0.604338
vn 0.796728 0.000000 0.604338
vn 0.796728 0.000000 0.604338
vn 0.000000 -1.000000 0.000000
vn 0.000000 -1.000000 0.000000
vn 0.000000 -1.000000 0.000000
vn 0.000000 -1.000000 0.000000
vn -0.996144 0.000000 -0.087739
vn -0.996144 0.000000 -0.087739
vn -0.999908 0.000000 -0.013584
vn -0.999908 0.000000 -0.013584
vn 0.000000 1.000000 0.000000
vn 0.000000 1.000000 0.000000
vn 0.000000 1.000000 0.000000
vn 0.000000 1.000000 0.000000
vn 0.999690 0.000000 0.024885
vn 0.999690 0.000000 0.024885
vn 0.993182 0.000000 -0.116570
vn 0.993182 0.000000 -0.116570
vn 0.000000 -1.000000 0.000000
vn 0.000000 -1.000000 0.000000
vn 0.000000 -1.000000 0.000000
vn 0.000000 -1.000000 0.000000
vn -0.999908 0.000000 -0.013584
vn -0.999908 0.000000 -0.013584
vn -0.979985 0.000000 0.199072
vn -0.979985 0.000000 0.199072
vn 0.000000 1.000000 0.000000
vn 0.000000 1.000000 0.000000
vn 0.000000 1.000000 0.000000
vn 0.000000 1.000000 0.000000
vn 0.993182 0.000000 -0.116570
vn 0.993182 0.000000 -0.116570
vn 0.952571 0.000000 -0.304318
vn 0.952571 0.000000 -0.304318
vn 0.000000 -1.000000 0.000000
vn 0.000000 -1.000000 0.000000
vn 0.000000 -1.000000 0.000000
vn 0.000000 -1.000000 0.000000
vn -0.979985 0.000000 0.199072
vn -0.979985 0.000000 0.199072
vn -0.946786 0.000000 0.321863
vn -0.946786 0.000000 0.321863
vn 0.000000 1.000000 0.000000
vn 0.000000 1.000000 0.000000
vn 0.000000 1.000000 0.000000
vn 0.000000 1.000000 0.000000
vn 0.651093 0.000000 -0.758998
vn 0.651093 0.000000 -0.758998
vn 0.651093 0.000000 -0.758998
vn 0.651093 0.000000 -0.758998
s off
g A_Symbol:A_Symbol group
usemtl A_Symbol:initialShadingGroup
f 81/1/1 82/2/2 83/3/3 84/4/4
f 3/5/5 4/6/6 6/7/7 5/8/8
f 13/9/9 14/10/10 15/11/11 16/12/12
f 7/13/13 8/14/14 2/15/15 1/16/16
f 2/17/17 8/18/18 6/19/19 4/6/20
f 7/20/21 1/21/22 3/5/23 5/22/24
f 5/8/25 6/7/26 10/23/27 9/24/28
f 6/7/29 8/14/30 11/25/31 10/23/32
f 8/14/33 7/13/34 12/26/35 11/25/36
f 22/27/37 21/28/38 23/29/39 24/30/40
f 9/24/41 10/23/42 14/10/43 13/9/44
f 10/23/45 11/25/46 15/11/47 14/10/48
f 11/25/49 12/26/50 16/12/51 15/11/52
f 12/26/53 9/24/54 13/9/55 16/12/56
f 7/13/57 5/8/58 17/31/59 18/32/60
f 5/8/61 9/24/62 19/33/63 17/31/64
f 9/24/65 12/26/66 20/34/67 19/33/68
f 12/26/69 7/13/70 18/32/71 20/34/72
f 18/32/73 17/31/74 21/28/75 22/27/76
f 17/31/77 19/33/78 23/29/79 21/28/80
f 49/35/81 50/36/82 51/37/83 52/38/84
f 20/34/85 18/32/86 22/27/87 24/30/88
f 19/33/89 20/34/90 26/39/91 25/40/92
f 20/34/93 24/30/94 27/41/95 26/39/96
f 24/30/97 23/29/98 28/42/99 27/41/100
f 23/29/101 19/33/102 25/40/103 28/42/104
f 25/40/105 26/39/106 30/43/107 29/44/108
f 26/39/109 27/41/110 31/45/111 30/43/112
f 27/41/113 28/42/114 32/46/115 31/45/116
f 28/42/117 25/40/118 29/44/119 32/46/120
f 29/44/121 30/43/122 34/47/123 33/48/124
f 30/43/125 31/45/126 35/49/127 34/47/128
f 31/45/129 32/46/130 36/50/131 35/49/132
f 32/46/133 29/44/134 33/48/135 36/50/136
f 33/48/137 34/47/138 38/51/139 37/52/140
f 34/47/141 35/49/142 39/53/143 38/51/144
f 35/49/145 36/50/146 40/54/147 39/53/148
f 36/50/149 33/48/150 37/52/151 40/54/152
f 37/52/153 38/51/154 42/55/155 41/56/156
f 38/51/157 39/53/158 43/57/159 42/55/160
f 39/53/161 40/54/162 44/58/163 43/57/164
f 40/54/165 37/52/166 41/56/167 44/58/168
f 41/56/169 42/55/170 46/59/171 45/60/172
f 42/55/173 43/57/174 47/61/175 46/59/176
f 43/57/177 44/58/178 48/62/179 47/61/180
f 44/58/181 41/56/182 45/60/183 48/62/184
f 45/60/185 46/59/186 50/36/187 49/35/188
f 46/59/189 47/61/190 51/37/191 50/36/192
f 47/61/193 48/62/194 52/38/195 51/37/196
f 48/62/197 45/60/198 49/35/199 52/38/200
f 1/21/201 2/17/202 54/63/203 53/64/204
f 2/17/205 4/6/206 55/65/207 54/63/208
f 4/6/209 3/5/210 56/66/211 55/65/212
f 3/5/213 1/21/214 53/64/215 56/66/216
f 53/64/217 54/63/218 58/67/219 57/68/220
f 54/63/221 55/65/222 59/69/223 58/67/224
f 55/65/225 56/66/226 60/70/227 59/69/228
f 56/66/229 53/64/230 57/68/231 60/70/232
f 57/68/233 58/67/234 62/71/235 61/72/236
f 58/67/237 59/69/238 63/73/239 62/71/240
f 59/69/241 60/70/242 64/74/243 63/73/244
f 60/70/245 57/68/246 61/72/247 64/74/248
f 61/72/249 62/71/250 66/75/251 65/76/252
f 62/71/253 63/73/254 67/77/255 66/75/256
f 63/73/257 64/74/258 68/78/259 67/77/260
f 64/74/261 61/72/262 65/76/263 68/78/264
f 65/76/265 66/75/266 70/79/267 69/80/268
f 66/75/269 67/77/270 71/81/271 70/79/272
f 67/77/273 68/78/274 72/82/275 71/81/276
f 68/78/277 65/76/278 69/80/279 72/82/280
f 69/80/281 70/79/282 74/83/283 73/84/284
f 70/79/285 71/81/286 75/85/287 74/83/288
f 71/81/289 72/82/290 76/86/291 75/85/292
f 72/82/293 69/80/294 73/84/295 76/86/296
f 73/84/297 74/83/298 78/87/299 77/88/300
f 74/83/301 75/85/302 79/89/303 78/87/304
f 75/85/305 76/86/306 80/90/307 79/89/308
f 76/86/309 73/84/310 77/88/311 80/90/312
f 77/88/313 78/87/314 82/2/315 81/1/316
f 78/87/317 79/89/318 83/3/319 82/2/320
f 79/89/321 80/90/322 84/4/323 83/3/324
f 80/90/325 77/88/326 81/1/327 84/4/328
