# This file uses centimeters as units for non-parametric coordinates.

mtllib B_Symbol.mtl
g default
v 1.189628 -0.206667 -0.385881
v 1.012079 -0.206667 -0.734342
v 0.735539 -0.206667 -1.010882
v 0.387078 -0.206667 -1.188431
v 0.000807 -0.206667 -1.249610
v -0.385464 -0.206667 -1.188431
v -0.733925 -0.206667 -1.010881
v -1.010465 -0.206667 -0.734342
v -1.188014 -0.206667 -0.385881
v -1.249193 -0.206667 0.000390
v -1.188014 -0.206667 0.386661
v -1.010464 -0.206667 0.735122
v -0.733925 -0.206667 1.011662
v -0.385464 -0.206667 1.189211
v 0.000807 -0.206667 1.250390
v 0.387078 -0.206667 1.189211
v 0.735539 -0.206667 1.011661
v 1.012078 -0.206667 0.735122
v 1.189628 -0.206667 0.386661
v 1.250807 -0.206667 0.000390
v 1.189628 0.206667 -0.385881
v 1.012079 0.206667 -0.734342
v 0.735539 0.206667 -1.010882
v 0.387078 0.206667 -1.188431
v 0.000807 0.206667 -1.249610
v -0.385464 0.206667 -1.188431
v -0.733925 0.206667 -1.010881
v -1.010465 0.206667 -0.734342
v -1.188014 0.206667 -0.385881
v -1.249193 0.206667 0.000390
v -1.188014 0.206667 0.386661
v -1.010464 0.206667 0.735122
v -0.733925 0.206667 1.011662
v -0.385464 0.206667 1.189211
v 0.000807 0.206667 1.250390
v 0.387078 0.206667 1.189211
v 0.735539 0.206667 1.011661
v 1.012078 0.206667 0.735122
v 1.189628 0.206667 0.386661
v 1.250807 0.206667 0.000390
v 0.000807 -0.206667 0.000390
v 0.000807 0.206667 0.000390
vt 0.888560 0.419273
vt 0.867174 0.377300
vt 0.833864 0.343991
vt 0.791892 0.322605
vt 0.745365 0.315236
vt 0.698838 0.322605
vt 0.656866 0.343991
vt 0.623556 0.377300
vt 0.602171 0.419273
vt 0.594801 0.465799
vt 0.602171 0.512326
vt 0.623556 0.554299
vt 0.656866 0.587608
vt 0.698838 0.608994
vt 0.745365 0.616363
vt 0.791892 0.608994
vt 0.833864 0.587608
vt 0.867174 0.554299
vt 0.888560 0.512326
vt 0.895929 0.465799
vt 0.916869 0.951496
vt 0.917030 0.907737
vt 0.917391 0.864057
vt 0.917723 0.820366
vt 0.917909 0.776616
vt 0.918206 0.732911
vt 0.918533 0.689218
vt 0.918793 0.645498
vt 0.919060 0.601781
vt 0.919327 0.558064
vt 0.919627 0.514359
vt 0.919933 0.470658
vt 0.920199 0.426941
vt 0.920469 0.383225
vt 0.920732 0.339506
vt 0.921055 0.295811
vt 0.921354 0.252106
vt 0.921539 0.208357
vt 0.921870 0.164665
vt 0.922230 0.120985
vt 0.922391 0.077226
vt 0.963070 0.951793
vt 0.963226 0.908032
vt 0.963593 0.864355
vt 0.963919 0.820661
vt 0.964107 0.776912
vt 0.964405 0.733207
vt 0.964728 0.689513
vt 0.964991 0.645794
vt 0.965260 0.602078
vt 0.965527 0.558360
vt 0.965832 0.514658
vt 0.966132 0.470955
vt 0.966400 0.427238
vt 0.966665 0.383520
vt 0.966928 0.339801
vt 0.967254 0.296108
vt 0.967548 0.252401
vt 0.967740 0.208654
vt 0.968065 0.164960
vt 0.968433 0.121283
vt 0.968591 0.077522
vt 0.888560 0.750755
vt 0.867174 0.708782
vt 0.833864 0.675473
vt 0.791892 0.654087
vt 0.745365 0.646718
vt 0.698838 0.654087
vt 0.656866 0.675473
vt 0.623556 0.708782
vt 0.602171 0.750755
vt 0.594801 0.797281
vt 0.602171 0.843808
vt 0.623556 0.885780
vt 0.656866 0.919090
vt 0.698838 0.940476
vt 0.745365 0.947845
vt 0.791892 0.940476
vt 0.833864 0.919090
vt 0.867174 0.885780
vt 0.888560 0.843808
vt 0.895929 0.797281
vt 0.745365 0.459777
vt 0.745365 0.791259
vn 0.951057 0.000000 -0.309016
vn 0.809017 0.000000 -0.587785
vn 0.809017 0.000000 -0.587785
vn 0.951057 0.000000 -0.309016
vn 0.587785 0.000000 -0.809017
vn 0.587785 0.000000 -0.809017
vn 0.309017 0.000000 -0.951057
vn 0.309017 0.000000 -0.951057
vn -0.000000 0.000000 -1.000000
vn -0.000000 0.000000 -1.000000
vn -0.309017 0.000000 -0.951056
vn -0.309017 0.000000 -0.951056
vn -0.587785 0.000000 -0.809017
vn -0.587785 0.000000 -0.809017
vn -0.809017 0.000000 -0.587785
vn -0.809017 0.000000 -0.587785
vn -0.951057 0.000000 -0.309017
vn -0.951057 0.000000 -0.309017
vn -1.000000 0.000000 0.000000
vn -1.000000 0.000000 0.000000
vn -0.951057 0.000000 0.309017
vn -0.951057 0.000000 0.309017
vn -0.809017 0.000000 0.587785
vn -0.809017 0.000000 0.587785
vn -0.587785 0.000000 0.809017
vn -0.587785 0.000000 0.809017
vn -0.309017 0.000000 0.951057
vn -0.309017 0.000000 0.951057
vn 0.000000 0.000000 1.000000
vn 0.000000 0.000000 1.000000
vn 0.309017 0.000000 0.951056
vn 0.309017 0.000000 0.951056
vn 0.587785 0.000000 0.809017
vn 0.587785 0.000000 0.809017
vn 0.809017 0.000000 0.587785
vn 0.809017 0.000000 0.587785
vn 0.951057 0.000000 0.309017
vn 0.951057 0.000000 0.309017
vn 1.000000 0.000000 0.000001
vn 1.000000 0.000000 0.000001
vn 0.000000 -1.000000 0.000000
vn 0.000000 -1.000000 0.000000
vn 0.000000 -1.000000 0.000000
vn 0.000000 -1.000000 0.000000
vn 0.000000 -1.000000 0.000000
vn 0.000000 -1.000000 0.000000
vn 0.000000 -1.000000 0.000000
vn 0.000000 -1.000000 0.000000
vn 0.000000 -1.000000 0.000000
vn 0.000000 -1.000000 0.000000
vn 0.000000 -1.000000 0.000000
vn 0.000000 -1.000000 0.000000
vn 0.000000 -1.000000 0.000000
vn 0.000000 -1.000000 0.000000
vn 0.000000 -1.000000 0.000000
vn 0.000000 -1.000000 0.000000
vn 0.000000 -1.000000 0.000000
vn 0.000000 -1.000000 0.000000
vn 0.000000 -1.000000 0.000000
vn 0.000000 -1.000000 0.000000
vn 0.000000 -1.000000 0.000000
vn 0.000000 1.000000 0.000000
vn 0.000000 1.000000 0.000000
vn 0.000000 1.000000 0.000000
vn 0.000000 1.000000 0.000000
vn 0.000000 1.000000 0.000000
vn 0.000000 1.000000 0.000000
vn 0.000000 1.000000 0.000000
vn 0.000000 1.000000 0.000000
vn 0.000000 1.000000 0.000000
vn 0.000000 1.000000 0.000000
vn 0.000000 1.000000 0.000000
vn 0.000000 1.000000 0.000000
vn 0.000000 1.000000 0.000000
vn 0.000000 1.000000 0.000000
vn 0.000000 1.000000 0.000000
vn 0.000000 1.000000 0.000000
vn 0.000000 1.000000 0.000000
vn 0.000000 1.000000 0.000000
vn 0.000000 1.000000 0.000000
vn 0.000000 1.000000 0.000000
vn 0.000000 1.000000 0.000000
s 1
g ExampleToken4 B_Symbol
usemtl initialShadingGroup
f 1/21/1 2/22/2 22/43/3 21/42/4
f 2/22/2 3/23/5 23/44/6 22/43/3
f 3/23/5 4/24/7 24/45/8 23/44/6
f 4/24/7 5/25/9 25/46/10 24/45/8
f 5/25/9 6/26/11 26/47/12 25/46/10
f 6/26/11 7/27/13 27/48/14 26/47/12
f 7/27/13 8/28/15 28/49/16 27/48/14
f 8/28/15 9/29/17 29/50/18 28/49/16
f 9/29/17 10/30/19 30/51/20 29/50/18
f 10/30/19 11/31/21 31/52/22 30/51/20
f 11/31/21 12/32/23 32/53/24 31/52/22
f 12/32/23 13/33/25 33/54/26 32/53/24
f 13/33/25 14/34/27 34/55/28 33/54/26
f 14/34/27 15/35/29 35/56/30 34/55/28
f 15/35/29 16/36/31 36/57/32 35/56/30
f 16/36/31 17/37/33 37/58/34 36/57/32
f 17/37/33 18/38/35 38/59/36 37/58/34
f 18/38/35 19/39/37 39/60/38 38/59/36
f 19/39/37 20/40/39 40/61/40 39/60/38
f 20/40/39 1/41/1 21/62/4 40/61/40
s 2
f 2/2/41 1/1/42 41/83/43
f 3/3/44 2/2/41 41/83/43
f 4/4/45 3/3/44 41/83/43
f 5/5/46 4/4/45 41/83/43
f 6/6/47 5/5/46 41/83/43
f 7/7/48 6/6/47 41/83/43
f 8/8/49 7/7/48 41/83/43
f 9/9/50 8/8/49 41/83/43
f 10/10/51 9/9/50 41/83/43
f 11/11/52 10/10/51 41/83/43
f 12/12/53 11/11/52 41/83/43
f 13/13/54 12/12/53 41/83/43
f 14/14/55 13/13/54 41/83/43
f 15/15/56 14/14/55 41/83/43
f 16/16/57 15/15/56 41/83/43
f 17/17/58 16/16/57 41/83/43
f 18/18/59 17/17/58 41/83/43
f 19/19/60 18/18/59 41/83/43
f 20/20/61 19/19/60 41/83/43
f 1/1/42 20/20/61 41/83/43
s 3
f 21/81/62 22/80/63 42/84/64
f 22/80/63 23/79/65 42/84/64
f 23/79/65 24/78/66 42/84/64
f 24/78/66 25/77/67 42/84/64
f 25/77/67 26/76/68 42/84/64
f 26/76/68 27/75/69 42/84/64
f 27/75/69 28/74/70 42/84/64
f 28/74/70 29/73/71 42/84/64
f 29/73/71 30/72/72 42/84/64
f 30/72/72 31/71/73 42/84/64
f 31/71/73 32/70/74 42/84/64
f 32/70/74 33/69/75 42/84/64
f 33/69/75 34/68/76 42/84/64
f 34/68/76 35/67/77 42/84/64
f 35/67/77 36/66/78 42/84/64
f 36/66/78 37/65/79 42/84/64
f 37/65/79 38/64/80 42/84/64
f 38/64/80 39/63/81 42/84/64
f 39/63/81 40/82/82 42/84/64
f 40/82/82 21/81/62 42/84/64
g default
v 0.043228 0.116899 0.711204
v 0.321112 0.116899 0.583682
v 0.043228 0.392949 0.711204
v 0.321112 0.392949 0.583682
v 0.043000 0.393025 -0.870009
v 0.320779 0.393025 -1.004925
v 0.043000 0.116975 -0.870009
v 0.320779 0.116975 -1.004925
v 0.043056 0.393025 -0.213685
v 0.043056 0.116975 -0.213685
v 0.320779 0.116975 -0.345772
v 0.320779 0.393025 -0.345772
v 0.042654 0.393025 -0.012056
v 0.042654 0.116975 -0.012056
v 0.320779 0.116975 -0.142554
v 0.320779 0.393025 -0.142554
v 0.043000 0.393025 -0.694658
v 0.043000 0.116975 -0.694658
v 0.320779 0.116975 -0.828743
v 0.320779 0.393025 -0.828743
v -0.442896 0.116975 -0.631132
v -0.442896 0.116975 -0.455782
v -0.442896 0.393025 -0.455782
v -0.442896 0.393025 -0.631132
v -0.638340 0.116975 -0.530696
v -0.638340 0.116975 -0.355346
v -0.638340 0.393025 -0.355346
v -0.638340 0.393025 -0.530696
v -0.442896 0.393025 0.065403
v -0.442896 0.116975 0.065403
v -0.638340 0.393025 0.165839
v -0.638340 0.116975 0.165839
v -0.442896 0.393025 0.230987
v -0.442896 0.116975 0.230987
v -0.638340 0.393025 0.331424
v -0.638340 0.116975 0.331424
v -0.176424 0.116824 1.034801
v 0.709435 0.116824 0.629725
v -0.176424 0.392873 1.034801
v 0.709435 0.392873 0.629725
v -0.261351 0.392873 0.851410
v 0.624509 0.392873 0.444717
v -0.261351 0.116824 0.851410
v 0.624509 0.116824 0.444717
v 0.406372 0.116824 0.768307
v 0.406372 0.392873 0.768307
v 0.128383 0.116824 0.895423
v 0.128383 0.392873 0.895423
vt 0.271214 0.619053
vt 0.270216 0.046586
vt 0.129117 0.414546
vt 0.164340 0.421378
vt 0.239022 0.263592
vt 0.208370 0.602525
vt 0.129063 0.359819
vt 0.270524 0.228228
vt 0.131943 0.169909
vt 0.098334 0.184714
vt 0.238961 0.228283
vt 0.319493 0.555164
vt 0.130263 0.280992
vt 0.096665 0.296346
vt 0.270393 0.152860
vt 0.190085 0.527366
vt 0.238829 0.152915
vt 0.149115 0.497030
vt 0.271061 0.536355
vt 0.097038 0.271938
vt 0.270352 0.129624
vt 0.184448 0.504195
vt 0.238789 0.129679
vt 0.168090 0.574853
vt 0.282808 0.357788
vt 0.095776 0.354352
vt 0.270489 0.208083
vt 0.203483 0.582436
vt 0.238926 0.208138
vt 0.187860 0.332023
vt 0.283818 0.423805
vt 0.106061 0.561095
vt 0.239130 0.325500
vt 0.270737 0.350570
vt 0.211841 0.299259
vt 0.239209 0.370675
vt 0.239174 0.350625
vt 0.284790 0.487352
vt 0.091603 0.501667
vt 0.239313 0.430267
vt 0.212799 0.236663
vt 0.189445 0.228479
vt 0.239389 0.474326
vt 0.239346 0.449200
vt 0.213104 0.216776
vt 0.319302 0.150704
vt 0.319466 0.191189
vt 0.133717 0.391179
vt 0.095095 0.383742
vt 0.285858 0.126427
vt 0.168782 0.153630
vt 0.122054 0.147627
vt 0.158919 0.131448
vt 0.319778 0.268365
vt 0.319878 0.292954
vt 0.286533 0.293090
vt 0.207340 0.405356
vt 0.319203 0.126292
vt 0.061639 0.200846
vt 0.088433 0.162383
vt 0.051779 0.178470
vt 0.168940 0.397962
vt 0.319615 0.228112
vt 0.286121 0.191324
vt 0.286271 0.228247
vt 0.286434 0.268500
vt 0.320032 0.333264
vt 0.238653 0.046641
vt 0.286688 0.333399
vt 0.202789 0.428807
vt 0.319029 0.085791
vt 0.090499 0.407009
vt 0.285685 0.085926
vt 0.239650 0.619108
vt 0.285957 0.150839
vt 0.270953 0.474271
vt 0.130682 0.256776
vt 0.087009 0.482787
vt 0.239498 0.536410
vt 0.318448 0.486837
vt 0.154754 0.520010
vt 0.270909 0.449146
vt 0.270876 0.430212
vt 0.061939 0.476757
vt 0.066531 0.495637
vt 0.270772 0.370620
vt 0.080989 0.555064
vt 0.317476 0.423290
vt 0.085854 0.575058
vt 0.110925 0.581089
vt 0.211518 0.320319
vt 0.270694 0.325445
vt 0.172955 0.594847
vt 0.320389 0.613809
vt 0.270586 0.263537
vt 0.095453 0.375512
vt 0.316466 0.357273
vt 0.189141 0.248366
vt 0.285834 0.555679
vt 0.188182 0.310962
vt 0.286731 0.614323
vt 0.129385 0.338759
vn 0.000055 1.000000 0.000185
vn 0.000089 1.000000 0.000145
vn 0.000032 1.000000 0.000070
vn 0.000030 1.000000 0.000065
vn -0.439628 0.000000 -0.898180
vn -0.436890 0.000000 -0.899515
vn -0.436890 0.000000 -0.899515
vn -0.439628 0.000000 -0.898180
vn -0.000030 -1.000000 -0.000065
vn -0.000032 -1.000000 -0.000070
vn -0.000089 -1.000000 -0.000145
vn -0.000055 -1.000000 -0.000185
vn 1.000000 0.000000 -0.000458
vn 1.000000 0.000000 -0.000358
vn 1.000000 0.000000 -0.000358
vn 1.000000 0.000000 -0.000458
vn -1.000000 0.000000 0.000794
vn -1.000000 0.000000 0.000794
vn -1.000000 0.000000 0.000794
vn -1.000000 0.000000 0.000794
vn -1.000000 0.000000 0.000117
vn -1.000000 0.000000 0.000117
vn -1.000000 0.000000 0.000117
vn -1.000000 0.000000 0.000117
vn 0.000000 -1.000000 -0.000000
vn 0.000000 -1.000000 -0.000000
vn 0.000000 -1.000000 -0.000000
vn 0.000000 -1.000000 -0.000000
vn 1.000000 0.000000 0.000000
vn 1.000000 0.000000 0.000000
vn 1.000000 0.000000 0.000000
vn 1.000000 0.000000 0.000000
vn 0.000000 1.000000 0.000000
vn 0.000000 1.000000 0.000000
vn 0.000000 1.000000 -0.000000
vn 0.000000 1.000000 -0.000000
vn -1.000000 0.000000 0.000000
vn -1.000000 0.000000 0.000000
vn -1.000000 0.000000 0.000000
vn -1.000000 0.000000 0.000000
vn 0.000000 -1.000000 0.000000
vn 0.000000 -1.000000 0.000000
vn 1.000000 0.000000 0.000000
vn 1.000000 0.000000 0.000000
vn 0.000000 1.000000 0.000000
vn 0.000000 1.000000 0.000000
vn 0.000000 -1.000000 0.000000
vn 0.000000 -1.000000 0.000000
vn 0.441187 0.000000 0.897415
vn 0.441187 0.000000 0.897415
vn 0.441187 0.000000 0.897415
vn 0.441187 0.000000 0.897415
vn 0.000000 1.000000 0.000000
vn 0.000000 1.000000 0.000000
vn -0.445786 0.000000 -0.895140
vn -0.445786 0.000000 -0.895140
vn 0.000000 -1.000000 0.000000
vn 0.000000 -1.000000 0.000000
vn 0.450339 0.000000 0.892857
vn 0.450339 0.000000 0.892857
vn 0.457069 0.000000 0.889431
vn 0.457069 0.000000 0.889431
vn 0.000000 1.000000 0.000000
vn 0.000000 1.000000 0.000000
vn -0.457066 0.000000 -0.889433
vn -0.457066 0.000000 -0.889433
vn 1.000000 0.000000 0.000000
vn 1.000000 0.000000 0.000000
vn 1.000000 0.000000 0.000000
vn 1.000000 0.000000 0.000000
vn 0.000000 1.000000 0.000000
vn 0.000000 1.000000 0.000000
vn -1.000000 0.000000 0.000000
vn -1.000000 0.000000 0.000000
vn 0.000000 -1.000000 0.000000
vn 0.000000 -1.000000 0.000000
vn 0.000000 1.000000 0.000000
vn 0.000000 1.000000 0.000000
vn -1.000000 0.000000 0.000000
vn -1.000000 0.000000 0.000000
vn 0.000000 -1.000000 0.000000
vn 0.000000 -1.000000 0.000000
vn -0.498021 0.000000 -0.867165
vn -0.498021 0.000000 -0.867165
vn -0.498021 0.000000 -0.867165
vn -0.498021 0.000000 -0.867165
vn 0.447609 0.000000 0.894229
vn 0.447609 0.000000 0.894229
vn 0.415854 0.000000 0.909432
vn 0.415855 0.000000 0.909431
vn 0.415855 0.000000 0.909431
vn 0.415854 0.000000 0.909432
vn -0.000025 1.000000 0.000218
vn 0.000062 1.000000 0.000276
vn -0.000025 1.000000 0.000218
vn -0.418150 0.000000 -0.908378
vn -0.418150 0.000000 -0.908378
vn -0.418150 0.000000 -0.908378
vn -0.418150 0.000000 -0.908378
vn 0.000025 -1.000000 -0.000217
vn -0.000062 -1.000000 -0.000276
vn 0.000025 -1.000000 -0.000217
vn 0.908822 0.000000 -0.417183
vn 0.908822 0.000000 -0.417183
vn 0.908822 0.000000 -0.417183
vn 0.908822 0.000000 -0.417183
vn -0.907423 0.000000 0.420218
vn -0.907423 0.000000 0.420218
vn -0.907423 0.000000 0.420218
vn -0.907423 0.000000 0.420218
vn -0.416428 0.000000 -0.909169
vn -0.416428 0.000000 -0.909169
vn -0.416428 0.000000 -0.909169
vn -0.416428 0.000000 -0.909169
vn -0.000169 -1.000000 -0.000225
vn -0.000181 -1.000000 -0.000122
vn -0.000181 -1.000000 -0.000122
vn 0.415855 0.000000 0.909431
vn 0.415855 0.000000 0.909431
vn 0.415855 0.000000 0.909431
vn 0.415855 0.000000 0.909431
vn 0.000169 1.000000 0.000226
vn 0.000181 1.000000 0.000122
vn 0.000181 1.000000 0.000122
s 1
g B_Symbol B_Symbol_B_Symbol
usemtl initialShadingGroup
f 45/87/83 46/88/84 58/106/85 55/102/86
s 2
f 47/89/87 48/95/88 50/92/89 49/179/90
s 3
f 56/161/91 57/104/92 44/94/93 43/93/94
s 4
f 44/86/95 57/105/96 58/107/97 46/152/98
s off
f 56/103/99 43/85/100 45/158/101 55/163/102
f 60/185/103 52/183/104 51/96/105 59/178/106
s 3
f 60/186/107 61/110/108 53/98/109 52/97/110
s 4
f 54/101/111 53/99/112 61/111/113 62/113/114
s 1
f 51/165/115 54/100/116 62/112/117 59/108/118
s 3
f 52/97/110 53/98/109 57/104/92 56/161/91
s 4
f 58/107/97 57/105/96 53/99/112 54/101/111
s 1
f 55/102/86 58/106/85 54/100/116 51/165/115
s 6
f 67/118/119 68/170/120 69/120/121 70/121/122
s 3
f 49/91/123 50/180/124 61/110/108 60/186/107
s 4
f 62/113/114 61/111/113 50/92/125 48/95/126
s 1
f 59/108/118 62/112/117 48/90/127 47/177/128
s 3
f 49/91/123 60/186/107 64/184/129 63/114/130
s off
f 60/109/131 59/181/132 65/172/133 64/115/134
s 1
f 59/108/118 47/177/128 66/174/135 65/116/136
s 2
f 47/89/87 49/179/90 63/176/137 66/117/138
s 3
f 63/114/130 64/184/129 68/119/139 67/175/140
s 7
f 76/160/141 75/127/142 77/128/143 78/166/144
s 1
f 65/116/136 66/174/135 70/173/145 69/171/146
s 2
f 66/117/138 63/176/137 67/118/147 70/121/148
s off
f 64/115/149 65/172/150 71/164/151 72/122/152
s 1
f 65/116/136 69/171/146 73/169/153 71/123/154
s 6
f 69/120/121 68/170/120 74/167/155 73/124/156
s 3
f 68/119/139 64/184/129 72/182/157 74/125/158
s 1
f 71/123/154 73/169/153 77/168/159 75/162/160
s 6
f 73/124/156 74/167/155 78/166/161 77/128/162
s 3
f 74/125/158 72/182/157 76/126/163 78/129/164
s off
f 72/122/165 71/164/166 51/96/167 52/183/168
s 1
f 71/123/154 75/162/160 55/102/86 51/165/115
s 7
f 75/127/142 76/160/141 56/103/169 55/163/170
s 3
f 76/126/163 72/182/157 52/97/110 56/161/91
s 8
f 79/130/171 89/131/172 90/148/173 81/159/174
s 1
f 81/133/175 90/132/176 45/87/83 83/156/177
s off
f 83/134/178 45/157/179 43/155/180 85/142/181
s 3
f 85/135/182 43/93/94 89/136/183 79/137/184
s off
f 80/138/185 86/139/186 84/140/187 82/150/188
f 85/142/189 79/130/190 81/159/191 83/134/192
f 46/153/193 84/140/194 86/139/195 44/151/196
s 3
f 87/144/197 44/94/93 86/143/198 80/145/199
s 8
f 88/149/200 87/147/201 80/138/202 82/150/203
s 1
f 46/88/84 88/146/204 82/141/205 84/154/206
s 3
f 89/136/183 43/93/94 44/94/93 87/144/197
s 8
f 90/148/173 89/131/172 87/147/201 88/149/200
s 1
f 45/87/83 90/132/176 88/146/204 46/88/84
